<mxfile host="Electron" modified="2024-02-14T00:12:52.923Z" agent="Mozilla/5.0 (Windows NT 10.0; Win64; x64) AppleWebKit/537.36 (KHTML, like Gecko) draw.io/23.0.2 Chrome/120.0.6099.109 Electron/28.1.0 Safari/537.36" etag="XxkRBuJtKPYEztVcGGVG" version="23.0.2" type="device">
  <diagram id="R2lEEEUBdFMjLlhIrx00" name="Page-1">
    <mxGraphModel dx="1912" dy="2225" grid="1" gridSize="10" guides="1" tooltips="1" connect="1" arrows="1" fold="1" page="1" pageScale="1" pageWidth="850" pageHeight="1100" math="0" shadow="0" extFonts="Permanent Marker^https://fonts.googleapis.com/css?family=Permanent+Marker">
      <root>
        <mxCell id="0" />
        <mxCell id="1" parent="0" />
        <mxCell id="59zhnOQAHoqHDvjKzUpp-17" style="edgeStyle=orthogonalEdgeStyle;rounded=0;orthogonalLoop=1;jettySize=auto;html=1;entryX=0;entryY=0.5;entryDx=0;entryDy=0;fillColor=#fff2cc;strokeColor=#d6b656;" parent="1" source="C-vyLk0tnHw3VtMMgP7b-24" target="59zhnOQAHoqHDvjKzUpp-62" edge="1">
          <mxGeometry relative="1" as="geometry">
            <Array as="points">
              <mxPoint x="280" y="190" />
              <mxPoint x="280" y="510" />
            </Array>
          </mxGeometry>
        </mxCell>
        <mxCell id="C-vyLk0tnHw3VtMMgP7b-23" value="USERS" style="shape=table;startSize=40;container=1;collapsible=1;childLayout=tableLayout;fixedRows=1;rowLines=0;fontStyle=1;align=center;resizeLast=1;" parent="1" vertex="1">
          <mxGeometry x="875" y="130" width="370" height="160" as="geometry" />
        </mxCell>
        <mxCell id="C-vyLk0tnHw3VtMMgP7b-24" value="" style="shape=partialRectangle;collapsible=0;dropTarget=0;pointerEvents=0;fillColor=none;points=[[0,0.5],[1,0.5]];portConstraint=eastwest;top=0;left=0;right=0;bottom=1;" parent="C-vyLk0tnHw3VtMMgP7b-23" vertex="1">
          <mxGeometry y="40" width="370" height="40" as="geometry" />
        </mxCell>
        <mxCell id="C-vyLk0tnHw3VtMMgP7b-25" value="PK" style="shape=partialRectangle;overflow=hidden;connectable=0;fillColor=none;top=0;left=0;bottom=0;right=0;fontStyle=1;" parent="C-vyLk0tnHw3VtMMgP7b-24" vertex="1">
          <mxGeometry width="30" height="40" as="geometry">
            <mxRectangle width="30" height="40" as="alternateBounds" />
          </mxGeometry>
        </mxCell>
        <mxCell id="C-vyLk0tnHw3VtMMgP7b-26" value="user_id varchar(5) NOT NULL" style="shape=partialRectangle;overflow=hidden;connectable=0;fillColor=none;top=0;left=0;bottom=0;right=0;align=left;spacingLeft=6;fontStyle=5;" parent="C-vyLk0tnHw3VtMMgP7b-24" vertex="1">
          <mxGeometry x="30" width="340" height="40" as="geometry">
            <mxRectangle width="340" height="40" as="alternateBounds" />
          </mxGeometry>
        </mxCell>
        <mxCell id="C-vyLk0tnHw3VtMMgP7b-27" value="" style="shape=partialRectangle;collapsible=0;dropTarget=0;pointerEvents=0;fillColor=none;points=[[0,0.5],[1,0.5]];portConstraint=eastwest;top=0;left=0;right=0;bottom=0;" parent="C-vyLk0tnHw3VtMMgP7b-23" vertex="1">
          <mxGeometry y="80" width="370" height="40" as="geometry" />
        </mxCell>
        <mxCell id="C-vyLk0tnHw3VtMMgP7b-28" value="" style="shape=partialRectangle;overflow=hidden;connectable=0;fillColor=none;top=0;left=0;bottom=0;right=0;" parent="C-vyLk0tnHw3VtMMgP7b-27" vertex="1">
          <mxGeometry width="30" height="40" as="geometry">
            <mxRectangle width="30" height="40" as="alternateBounds" />
          </mxGeometry>
        </mxCell>
        <mxCell id="C-vyLk0tnHw3VtMMgP7b-29" value="role enum(&quot;admin&quot;, &quot;employee&quot;) NOT NULL" style="shape=partialRectangle;overflow=hidden;connectable=0;fillColor=none;top=0;left=0;bottom=0;right=0;align=left;spacingLeft=6;" parent="C-vyLk0tnHw3VtMMgP7b-27" vertex="1">
          <mxGeometry x="30" width="340" height="40" as="geometry">
            <mxRectangle width="340" height="40" as="alternateBounds" />
          </mxGeometry>
        </mxCell>
        <mxCell id="59zhnOQAHoqHDvjKzUpp-98" value="" style="shape=partialRectangle;collapsible=0;dropTarget=0;pointerEvents=0;fillColor=none;points=[[0,0.5],[1,0.5]];portConstraint=eastwest;top=0;left=0;right=0;bottom=0;" parent="C-vyLk0tnHw3VtMMgP7b-23" vertex="1">
          <mxGeometry y="120" width="370" height="40" as="geometry" />
        </mxCell>
        <mxCell id="59zhnOQAHoqHDvjKzUpp-99" value="" style="shape=partialRectangle;overflow=hidden;connectable=0;fillColor=none;top=0;left=0;bottom=0;right=0;" parent="59zhnOQAHoqHDvjKzUpp-98" vertex="1">
          <mxGeometry width="30" height="40" as="geometry">
            <mxRectangle width="30" height="40" as="alternateBounds" />
          </mxGeometry>
        </mxCell>
        <mxCell id="59zhnOQAHoqHDvjKzUpp-100" value="password_hash varchar(65) NOT NULL" style="shape=partialRectangle;overflow=hidden;connectable=0;fillColor=none;top=0;left=0;bottom=0;right=0;align=left;spacingLeft=6;" parent="59zhnOQAHoqHDvjKzUpp-98" vertex="1">
          <mxGeometry x="30" width="340" height="40" as="geometry">
            <mxRectangle width="340" height="40" as="alternateBounds" />
          </mxGeometry>
        </mxCell>
        <mxCell id="59zhnOQAHoqHDvjKzUpp-3" value="ADMINISTRATOR" style="shape=table;startSize=40;container=1;collapsible=1;childLayout=tableLayout;fixedRows=1;rowLines=0;fontStyle=1;align=center;resizeLast=1;" parent="1" vertex="1">
          <mxGeometry x="340" y="410" width="320" height="330" as="geometry" />
        </mxCell>
        <mxCell id="59zhnOQAHoqHDvjKzUpp-4" value="" style="shape=partialRectangle;collapsible=0;dropTarget=0;pointerEvents=0;fillColor=none;points=[[0,0.5],[1,0.5]];portConstraint=eastwest;top=0;left=0;right=0;bottom=1;" parent="59zhnOQAHoqHDvjKzUpp-3" vertex="1">
          <mxGeometry y="40" width="320" height="40" as="geometry" />
        </mxCell>
        <mxCell id="59zhnOQAHoqHDvjKzUpp-5" value="PK" style="shape=partialRectangle;overflow=hidden;connectable=0;fillColor=none;top=0;left=0;bottom=0;right=0;fontStyle=1;" parent="59zhnOQAHoqHDvjKzUpp-4" vertex="1">
          <mxGeometry width="30" height="40" as="geometry">
            <mxRectangle width="30" height="40" as="alternateBounds" />
          </mxGeometry>
        </mxCell>
        <mxCell id="59zhnOQAHoqHDvjKzUpp-6" value="admin_id int NOT NULL AUTO_INCREMENT" style="shape=partialRectangle;overflow=hidden;connectable=0;fillColor=none;top=0;left=0;bottom=0;right=0;align=left;spacingLeft=6;fontStyle=5;" parent="59zhnOQAHoqHDvjKzUpp-4" vertex="1">
          <mxGeometry x="30" width="290" height="40" as="geometry">
            <mxRectangle width="290" height="40" as="alternateBounds" />
          </mxGeometry>
        </mxCell>
        <mxCell id="59zhnOQAHoqHDvjKzUpp-62" value="" style="shape=partialRectangle;collapsible=0;dropTarget=0;pointerEvents=0;fillColor=none;points=[[0,0.5],[1,0.5]];portConstraint=eastwest;top=0;left=0;right=0;bottom=0;" parent="59zhnOQAHoqHDvjKzUpp-3" vertex="1">
          <mxGeometry y="80" width="320" height="40" as="geometry" />
        </mxCell>
        <mxCell id="59zhnOQAHoqHDvjKzUpp-63" value="FK" style="shape=partialRectangle;overflow=hidden;connectable=0;fillColor=none;top=0;left=0;bottom=0;right=0;" parent="59zhnOQAHoqHDvjKzUpp-62" vertex="1">
          <mxGeometry width="30" height="40" as="geometry">
            <mxRectangle width="30" height="40" as="alternateBounds" />
          </mxGeometry>
        </mxCell>
        <mxCell id="59zhnOQAHoqHDvjKzUpp-64" value="user_id varchar(5) NOT NULL" style="shape=partialRectangle;overflow=hidden;connectable=0;fillColor=none;top=0;left=0;bottom=0;right=0;align=left;spacingLeft=6;" parent="59zhnOQAHoqHDvjKzUpp-62" vertex="1">
          <mxGeometry x="30" width="290" height="40" as="geometry">
            <mxRectangle width="290" height="40" as="alternateBounds" />
          </mxGeometry>
        </mxCell>
        <mxCell id="59zhnOQAHoqHDvjKzUpp-68" value="" style="shape=partialRectangle;collapsible=0;dropTarget=0;pointerEvents=0;fillColor=none;points=[[0,0.5],[1,0.5]];portConstraint=eastwest;top=0;left=0;right=0;bottom=0;" parent="59zhnOQAHoqHDvjKzUpp-3" vertex="1">
          <mxGeometry y="120" width="320" height="40" as="geometry" />
        </mxCell>
        <mxCell id="59zhnOQAHoqHDvjKzUpp-69" value="" style="shape=partialRectangle;overflow=hidden;connectable=0;fillColor=none;top=0;left=0;bottom=0;right=0;" parent="59zhnOQAHoqHDvjKzUpp-68" vertex="1">
          <mxGeometry width="30" height="40" as="geometry">
            <mxRectangle width="30" height="40" as="alternateBounds" />
          </mxGeometry>
        </mxCell>
        <mxCell id="59zhnOQAHoqHDvjKzUpp-70" value="last_name varchar(100) NOT NULL" style="shape=partialRectangle;overflow=hidden;connectable=0;fillColor=none;top=0;left=0;bottom=0;right=0;align=left;spacingLeft=6;" parent="59zhnOQAHoqHDvjKzUpp-68" vertex="1">
          <mxGeometry x="30" width="290" height="40" as="geometry">
            <mxRectangle width="290" height="40" as="alternateBounds" />
          </mxGeometry>
        </mxCell>
        <mxCell id="59zhnOQAHoqHDvjKzUpp-71" value="" style="shape=partialRectangle;collapsible=0;dropTarget=0;pointerEvents=0;fillColor=none;points=[[0,0.5],[1,0.5]];portConstraint=eastwest;top=0;left=0;right=0;bottom=0;" parent="59zhnOQAHoqHDvjKzUpp-3" vertex="1">
          <mxGeometry y="160" width="320" height="40" as="geometry" />
        </mxCell>
        <mxCell id="59zhnOQAHoqHDvjKzUpp-72" value="" style="shape=partialRectangle;overflow=hidden;connectable=0;fillColor=none;top=0;left=0;bottom=0;right=0;" parent="59zhnOQAHoqHDvjKzUpp-71" vertex="1">
          <mxGeometry width="30" height="40" as="geometry">
            <mxRectangle width="30" height="40" as="alternateBounds" />
          </mxGeometry>
        </mxCell>
        <mxCell id="59zhnOQAHoqHDvjKzUpp-73" value="first_name varchar(100) NOT NULL" style="shape=partialRectangle;overflow=hidden;connectable=0;fillColor=none;top=0;left=0;bottom=0;right=0;align=left;spacingLeft=6;" parent="59zhnOQAHoqHDvjKzUpp-71" vertex="1">
          <mxGeometry x="30" width="290" height="40" as="geometry">
            <mxRectangle width="290" height="40" as="alternateBounds" />
          </mxGeometry>
        </mxCell>
        <mxCell id="59zhnOQAHoqHDvjKzUpp-74" value="" style="shape=partialRectangle;collapsible=0;dropTarget=0;pointerEvents=0;fillColor=none;points=[[0,0.5],[1,0.5]];portConstraint=eastwest;top=0;left=0;right=0;bottom=0;" parent="59zhnOQAHoqHDvjKzUpp-3" vertex="1">
          <mxGeometry y="200" width="320" height="40" as="geometry" />
        </mxCell>
        <mxCell id="59zhnOQAHoqHDvjKzUpp-75" value="" style="shape=partialRectangle;overflow=hidden;connectable=0;fillColor=none;top=0;left=0;bottom=0;right=0;" parent="59zhnOQAHoqHDvjKzUpp-74" vertex="1">
          <mxGeometry width="30" height="40" as="geometry">
            <mxRectangle width="30" height="40" as="alternateBounds" />
          </mxGeometry>
        </mxCell>
        <mxCell id="59zhnOQAHoqHDvjKzUpp-76" value="email varchar(250) NOT NULL" style="shape=partialRectangle;overflow=hidden;connectable=0;fillColor=none;top=0;left=0;bottom=0;right=0;align=left;spacingLeft=6;" parent="59zhnOQAHoqHDvjKzUpp-74" vertex="1">
          <mxGeometry x="30" width="290" height="40" as="geometry">
            <mxRectangle width="290" height="40" as="alternateBounds" />
          </mxGeometry>
        </mxCell>
        <mxCell id="59zhnOQAHoqHDvjKzUpp-77" value="" style="shape=partialRectangle;collapsible=0;dropTarget=0;pointerEvents=0;fillColor=none;points=[[0,0.5],[1,0.5]];portConstraint=eastwest;top=0;left=0;right=0;bottom=0;" parent="59zhnOQAHoqHDvjKzUpp-3" vertex="1">
          <mxGeometry y="240" width="320" height="40" as="geometry" />
        </mxCell>
        <mxCell id="59zhnOQAHoqHDvjKzUpp-78" value="" style="shape=partialRectangle;overflow=hidden;connectable=0;fillColor=none;top=0;left=0;bottom=0;right=0;" parent="59zhnOQAHoqHDvjKzUpp-77" vertex="1">
          <mxGeometry width="30" height="40" as="geometry">
            <mxRectangle width="30" height="40" as="alternateBounds" />
          </mxGeometry>
        </mxCell>
        <mxCell id="59zhnOQAHoqHDvjKzUpp-79" value="phone varchar(20) NOT NULL" style="shape=partialRectangle;overflow=hidden;connectable=0;fillColor=none;top=0;left=0;bottom=0;right=0;align=left;spacingLeft=6;" parent="59zhnOQAHoqHDvjKzUpp-77" vertex="1">
          <mxGeometry x="30" width="290" height="40" as="geometry">
            <mxRectangle width="290" height="40" as="alternateBounds" />
          </mxGeometry>
        </mxCell>
        <mxCell id="59zhnOQAHoqHDvjKzUpp-7" value="" style="shape=partialRectangle;collapsible=0;dropTarget=0;pointerEvents=0;fillColor=none;points=[[0,0.5],[1,0.5]];portConstraint=eastwest;top=0;left=0;right=0;bottom=0;" parent="59zhnOQAHoqHDvjKzUpp-3" vertex="1">
          <mxGeometry y="280" width="320" height="40" as="geometry" />
        </mxCell>
        <mxCell id="59zhnOQAHoqHDvjKzUpp-8" value="" style="shape=partialRectangle;overflow=hidden;connectable=0;fillColor=none;top=0;left=0;bottom=0;right=0;" parent="59zhnOQAHoqHDvjKzUpp-7" vertex="1">
          <mxGeometry width="30" height="40" as="geometry">
            <mxRectangle width="30" height="40" as="alternateBounds" />
          </mxGeometry>
        </mxCell>
        <mxCell id="59zhnOQAHoqHDvjKzUpp-9" value="birthdate datetime" style="shape=partialRectangle;overflow=hidden;connectable=0;fillColor=none;top=0;left=0;bottom=0;right=0;align=left;spacingLeft=6;" parent="59zhnOQAHoqHDvjKzUpp-7" vertex="1">
          <mxGeometry x="30" width="290" height="40" as="geometry">
            <mxRectangle width="290" height="40" as="alternateBounds" />
          </mxGeometry>
        </mxCell>
        <mxCell id="59zhnOQAHoqHDvjKzUpp-10" value="EMPLOYEE" style="shape=table;startSize=40;container=1;collapsible=1;childLayout=tableLayout;fixedRows=1;rowLines=0;fontStyle=1;align=center;resizeLast=1;" parent="1" vertex="1">
          <mxGeometry x="875" y="640" width="325" height="330" as="geometry" />
        </mxCell>
        <mxCell id="59zhnOQAHoqHDvjKzUpp-11" value="" style="shape=partialRectangle;collapsible=0;dropTarget=0;pointerEvents=0;fillColor=none;points=[[0,0.5],[1,0.5]];portConstraint=eastwest;top=0;left=0;right=0;bottom=1;" parent="59zhnOQAHoqHDvjKzUpp-10" vertex="1">
          <mxGeometry y="40" width="325" height="40" as="geometry" />
        </mxCell>
        <mxCell id="59zhnOQAHoqHDvjKzUpp-12" value="PK" style="shape=partialRectangle;overflow=hidden;connectable=0;fillColor=none;top=0;left=0;bottom=0;right=0;fontStyle=1;" parent="59zhnOQAHoqHDvjKzUpp-11" vertex="1">
          <mxGeometry width="30" height="40" as="geometry">
            <mxRectangle width="30" height="40" as="alternateBounds" />
          </mxGeometry>
        </mxCell>
        <mxCell id="59zhnOQAHoqHDvjKzUpp-13" value="employee_id int NOT NULL AUTO_INCREMENT" style="shape=partialRectangle;overflow=hidden;connectable=0;fillColor=none;top=0;left=0;bottom=0;right=0;align=left;spacingLeft=6;fontStyle=5;" parent="59zhnOQAHoqHDvjKzUpp-11" vertex="1">
          <mxGeometry x="30" width="295" height="40" as="geometry">
            <mxRectangle width="295" height="40" as="alternateBounds" />
          </mxGeometry>
        </mxCell>
        <mxCell id="59zhnOQAHoqHDvjKzUpp-14" value="" style="shape=partialRectangle;collapsible=0;dropTarget=0;pointerEvents=0;fillColor=none;points=[[0,0.5],[1,0.5]];portConstraint=eastwest;top=0;left=0;right=0;bottom=0;" parent="59zhnOQAHoqHDvjKzUpp-10" vertex="1">
          <mxGeometry y="80" width="325" height="40" as="geometry" />
        </mxCell>
        <mxCell id="59zhnOQAHoqHDvjKzUpp-15" value="FK" style="shape=partialRectangle;overflow=hidden;connectable=0;fillColor=none;top=0;left=0;bottom=0;right=0;" parent="59zhnOQAHoqHDvjKzUpp-14" vertex="1">
          <mxGeometry width="30" height="40" as="geometry">
            <mxRectangle width="30" height="40" as="alternateBounds" />
          </mxGeometry>
        </mxCell>
        <mxCell id="59zhnOQAHoqHDvjKzUpp-16" value="user_id varchar(5) NOT NULL" style="shape=partialRectangle;overflow=hidden;connectable=0;fillColor=none;top=0;left=0;bottom=0;right=0;align=left;spacingLeft=6;" parent="59zhnOQAHoqHDvjKzUpp-14" vertex="1">
          <mxGeometry x="30" width="295" height="40" as="geometry">
            <mxRectangle width="295" height="40" as="alternateBounds" />
          </mxGeometry>
        </mxCell>
        <mxCell id="59zhnOQAHoqHDvjKzUpp-83" value="" style="shape=partialRectangle;collapsible=0;dropTarget=0;pointerEvents=0;fillColor=none;points=[[0,0.5],[1,0.5]];portConstraint=eastwest;top=0;left=0;right=0;bottom=0;" parent="59zhnOQAHoqHDvjKzUpp-10" vertex="1">
          <mxGeometry y="120" width="325" height="40" as="geometry" />
        </mxCell>
        <mxCell id="59zhnOQAHoqHDvjKzUpp-84" value="" style="shape=partialRectangle;overflow=hidden;connectable=0;fillColor=none;top=0;left=0;bottom=0;right=0;" parent="59zhnOQAHoqHDvjKzUpp-83" vertex="1">
          <mxGeometry width="30" height="40" as="geometry">
            <mxRectangle width="30" height="40" as="alternateBounds" />
          </mxGeometry>
        </mxCell>
        <mxCell id="59zhnOQAHoqHDvjKzUpp-85" value="last_name varchar(100) NOT NULL" style="shape=partialRectangle;overflow=hidden;connectable=0;fillColor=none;top=0;left=0;bottom=0;right=0;align=left;spacingLeft=6;" parent="59zhnOQAHoqHDvjKzUpp-83" vertex="1">
          <mxGeometry x="30" width="295" height="40" as="geometry">
            <mxRectangle width="295" height="40" as="alternateBounds" />
          </mxGeometry>
        </mxCell>
        <mxCell id="59zhnOQAHoqHDvjKzUpp-86" value="" style="shape=partialRectangle;collapsible=0;dropTarget=0;pointerEvents=0;fillColor=none;points=[[0,0.5],[1,0.5]];portConstraint=eastwest;top=0;left=0;right=0;bottom=0;" parent="59zhnOQAHoqHDvjKzUpp-10" vertex="1">
          <mxGeometry y="160" width="325" height="40" as="geometry" />
        </mxCell>
        <mxCell id="59zhnOQAHoqHDvjKzUpp-87" value="" style="shape=partialRectangle;overflow=hidden;connectable=0;fillColor=none;top=0;left=0;bottom=0;right=0;" parent="59zhnOQAHoqHDvjKzUpp-86" vertex="1">
          <mxGeometry width="30" height="40" as="geometry">
            <mxRectangle width="30" height="40" as="alternateBounds" />
          </mxGeometry>
        </mxCell>
        <mxCell id="59zhnOQAHoqHDvjKzUpp-88" value="first_name varchar(100) NOT NULL" style="shape=partialRectangle;overflow=hidden;connectable=0;fillColor=none;top=0;left=0;bottom=0;right=0;align=left;spacingLeft=6;" parent="59zhnOQAHoqHDvjKzUpp-86" vertex="1">
          <mxGeometry x="30" width="295" height="40" as="geometry">
            <mxRectangle width="295" height="40" as="alternateBounds" />
          </mxGeometry>
        </mxCell>
        <mxCell id="59zhnOQAHoqHDvjKzUpp-89" value="" style="shape=partialRectangle;collapsible=0;dropTarget=0;pointerEvents=0;fillColor=none;points=[[0,0.5],[1,0.5]];portConstraint=eastwest;top=0;left=0;right=0;bottom=0;" parent="59zhnOQAHoqHDvjKzUpp-10" vertex="1">
          <mxGeometry y="200" width="325" height="40" as="geometry" />
        </mxCell>
        <mxCell id="59zhnOQAHoqHDvjKzUpp-90" value="" style="shape=partialRectangle;overflow=hidden;connectable=0;fillColor=none;top=0;left=0;bottom=0;right=0;" parent="59zhnOQAHoqHDvjKzUpp-89" vertex="1">
          <mxGeometry width="30" height="40" as="geometry">
            <mxRectangle width="30" height="40" as="alternateBounds" />
          </mxGeometry>
        </mxCell>
        <mxCell id="59zhnOQAHoqHDvjKzUpp-91" value="email varchar(100) NOT NULL" style="shape=partialRectangle;overflow=hidden;connectable=0;fillColor=none;top=0;left=0;bottom=0;right=0;align=left;spacingLeft=6;" parent="59zhnOQAHoqHDvjKzUpp-89" vertex="1">
          <mxGeometry x="30" width="295" height="40" as="geometry">
            <mxRectangle width="295" height="40" as="alternateBounds" />
          </mxGeometry>
        </mxCell>
        <mxCell id="59zhnOQAHoqHDvjKzUpp-92" value="" style="shape=partialRectangle;collapsible=0;dropTarget=0;pointerEvents=0;fillColor=none;points=[[0,0.5],[1,0.5]];portConstraint=eastwest;top=0;left=0;right=0;bottom=0;" parent="59zhnOQAHoqHDvjKzUpp-10" vertex="1">
          <mxGeometry y="240" width="325" height="40" as="geometry" />
        </mxCell>
        <mxCell id="59zhnOQAHoqHDvjKzUpp-93" value="" style="shape=partialRectangle;overflow=hidden;connectable=0;fillColor=none;top=0;left=0;bottom=0;right=0;" parent="59zhnOQAHoqHDvjKzUpp-92" vertex="1">
          <mxGeometry width="30" height="40" as="geometry">
            <mxRectangle width="30" height="40" as="alternateBounds" />
          </mxGeometry>
        </mxCell>
        <mxCell id="59zhnOQAHoqHDvjKzUpp-94" value="phone varchar(20) NOT NULL" style="shape=partialRectangle;overflow=hidden;connectable=0;fillColor=none;top=0;left=0;bottom=0;right=0;align=left;spacingLeft=6;" parent="59zhnOQAHoqHDvjKzUpp-92" vertex="1">
          <mxGeometry x="30" width="295" height="40" as="geometry">
            <mxRectangle width="295" height="40" as="alternateBounds" />
          </mxGeometry>
        </mxCell>
        <mxCell id="59zhnOQAHoqHDvjKzUpp-95" value="" style="shape=partialRectangle;collapsible=0;dropTarget=0;pointerEvents=0;fillColor=none;points=[[0,0.5],[1,0.5]];portConstraint=eastwest;top=0;left=0;right=0;bottom=0;" parent="59zhnOQAHoqHDvjKzUpp-10" vertex="1">
          <mxGeometry y="280" width="325" height="40" as="geometry" />
        </mxCell>
        <mxCell id="59zhnOQAHoqHDvjKzUpp-96" value="" style="shape=partialRectangle;overflow=hidden;connectable=0;fillColor=none;top=0;left=0;bottom=0;right=0;" parent="59zhnOQAHoqHDvjKzUpp-95" vertex="1">
          <mxGeometry width="30" height="40" as="geometry">
            <mxRectangle width="30" height="40" as="alternateBounds" />
          </mxGeometry>
        </mxCell>
        <mxCell id="59zhnOQAHoqHDvjKzUpp-97" value="birthdate datetime " style="shape=partialRectangle;overflow=hidden;connectable=0;fillColor=none;top=0;left=0;bottom=0;right=0;align=left;spacingLeft=6;" parent="59zhnOQAHoqHDvjKzUpp-95" vertex="1">
          <mxGeometry x="30" width="295" height="40" as="geometry">
            <mxRectangle width="295" height="40" as="alternateBounds" />
          </mxGeometry>
        </mxCell>
        <mxCell id="59zhnOQAHoqHDvjKzUpp-20" value="SHEDULES" style="shape=table;startSize=40;container=1;collapsible=1;childLayout=tableLayout;fixedRows=1;rowLines=0;fontStyle=1;align=center;resizeLast=1;" parent="1" vertex="1">
          <mxGeometry x="320" y="-160" width="320" height="280.00000000000045" as="geometry" />
        </mxCell>
        <mxCell id="59zhnOQAHoqHDvjKzUpp-21" value="" style="shape=partialRectangle;collapsible=0;dropTarget=0;pointerEvents=0;fillColor=none;points=[[0,0.5],[1,0.5]];portConstraint=eastwest;top=0;left=0;right=0;bottom=1;" parent="59zhnOQAHoqHDvjKzUpp-20" vertex="1">
          <mxGeometry y="40" width="320" height="40" as="geometry" />
        </mxCell>
        <mxCell id="59zhnOQAHoqHDvjKzUpp-22" value="PK" style="shape=partialRectangle;overflow=hidden;connectable=0;fillColor=none;top=0;left=0;bottom=0;right=0;fontStyle=1;" parent="59zhnOQAHoqHDvjKzUpp-21" vertex="1">
          <mxGeometry width="30" height="40" as="geometry">
            <mxRectangle width="30" height="40" as="alternateBounds" />
          </mxGeometry>
        </mxCell>
        <mxCell id="59zhnOQAHoqHDvjKzUpp-23" value="shedules_id int NOT NULL AUTO_INCREMENT" style="shape=partialRectangle;overflow=hidden;connectable=0;fillColor=none;top=0;left=0;bottom=0;right=0;align=left;spacingLeft=6;fontStyle=5;" parent="59zhnOQAHoqHDvjKzUpp-21" vertex="1">
          <mxGeometry x="30" width="290" height="40" as="geometry">
            <mxRectangle width="290" height="40" as="alternateBounds" />
          </mxGeometry>
        </mxCell>
        <mxCell id="59zhnOQAHoqHDvjKzUpp-24" value="" style="shape=partialRectangle;collapsible=0;dropTarget=0;pointerEvents=0;fillColor=none;points=[[0,0.5],[1,0.5]];portConstraint=eastwest;top=0;left=0;right=0;bottom=0;" parent="59zhnOQAHoqHDvjKzUpp-20" vertex="1">
          <mxGeometry y="80" width="320" height="40" as="geometry" />
        </mxCell>
        <mxCell id="59zhnOQAHoqHDvjKzUpp-25" value="" style="shape=partialRectangle;overflow=hidden;connectable=0;fillColor=none;top=0;left=0;bottom=0;right=0;" parent="59zhnOQAHoqHDvjKzUpp-24" vertex="1">
          <mxGeometry width="30" height="40" as="geometry">
            <mxRectangle width="30" height="40" as="alternateBounds" />
          </mxGeometry>
        </mxCell>
        <mxCell id="59zhnOQAHoqHDvjKzUpp-26" value="day varchar(50) NOT NULL" style="shape=partialRectangle;overflow=hidden;connectable=0;fillColor=none;top=0;left=0;bottom=0;right=0;align=left;spacingLeft=6;" parent="59zhnOQAHoqHDvjKzUpp-24" vertex="1">
          <mxGeometry x="30" width="290" height="40" as="geometry">
            <mxRectangle width="290" height="40" as="alternateBounds" />
          </mxGeometry>
        </mxCell>
        <mxCell id="59zhnOQAHoqHDvjKzUpp-137" value="" style="shape=partialRectangle;collapsible=0;dropTarget=0;pointerEvents=0;fillColor=none;points=[[0,0.5],[1,0.5]];portConstraint=eastwest;top=0;left=0;right=0;bottom=0;" parent="59zhnOQAHoqHDvjKzUpp-20" vertex="1">
          <mxGeometry y="120" width="320" height="40" as="geometry" />
        </mxCell>
        <mxCell id="59zhnOQAHoqHDvjKzUpp-138" value="" style="shape=partialRectangle;overflow=hidden;connectable=0;fillColor=none;top=0;left=0;bottom=0;right=0;" parent="59zhnOQAHoqHDvjKzUpp-137" vertex="1">
          <mxGeometry width="30" height="40" as="geometry">
            <mxRectangle width="30" height="40" as="alternateBounds" />
          </mxGeometry>
        </mxCell>
        <mxCell id="59zhnOQAHoqHDvjKzUpp-139" value="openning_time_am varchar(250) NOT NULL" style="shape=partialRectangle;overflow=hidden;connectable=0;fillColor=none;top=0;left=0;bottom=0;right=0;align=left;spacingLeft=6;" parent="59zhnOQAHoqHDvjKzUpp-137" vertex="1">
          <mxGeometry x="30" width="290" height="40" as="geometry">
            <mxRectangle width="290" height="40" as="alternateBounds" />
          </mxGeometry>
        </mxCell>
        <mxCell id="59zhnOQAHoqHDvjKzUpp-140" value="" style="shape=partialRectangle;collapsible=0;dropTarget=0;pointerEvents=0;fillColor=none;points=[[0,0.5],[1,0.5]];portConstraint=eastwest;top=0;left=0;right=0;bottom=0;" parent="59zhnOQAHoqHDvjKzUpp-20" vertex="1">
          <mxGeometry y="160" width="320" height="40" as="geometry" />
        </mxCell>
        <mxCell id="59zhnOQAHoqHDvjKzUpp-141" value="" style="shape=partialRectangle;overflow=hidden;connectable=0;fillColor=none;top=0;left=0;bottom=0;right=0;" parent="59zhnOQAHoqHDvjKzUpp-140" vertex="1">
          <mxGeometry width="30" height="40" as="geometry">
            <mxRectangle width="30" height="40" as="alternateBounds" />
          </mxGeometry>
        </mxCell>
        <mxCell id="59zhnOQAHoqHDvjKzUpp-142" value="closing_time_am varchar(250) NOT NULL" style="shape=partialRectangle;overflow=hidden;connectable=0;fillColor=none;top=0;left=0;bottom=0;right=0;align=left;spacingLeft=6;" parent="59zhnOQAHoqHDvjKzUpp-140" vertex="1">
          <mxGeometry x="30" width="290" height="40" as="geometry">
            <mxRectangle width="290" height="40" as="alternateBounds" />
          </mxGeometry>
        </mxCell>
        <mxCell id="59zhnOQAHoqHDvjKzUpp-143" value="" style="shape=partialRectangle;collapsible=0;dropTarget=0;pointerEvents=0;fillColor=none;points=[[0,0.5],[1,0.5]];portConstraint=eastwest;top=0;left=0;right=0;bottom=0;" parent="59zhnOQAHoqHDvjKzUpp-20" vertex="1">
          <mxGeometry y="200" width="320" height="40" as="geometry" />
        </mxCell>
        <mxCell id="59zhnOQAHoqHDvjKzUpp-144" value="" style="shape=partialRectangle;overflow=hidden;connectable=0;fillColor=none;top=0;left=0;bottom=0;right=0;" parent="59zhnOQAHoqHDvjKzUpp-143" vertex="1">
          <mxGeometry width="30" height="40" as="geometry">
            <mxRectangle width="30" height="40" as="alternateBounds" />
          </mxGeometry>
        </mxCell>
        <mxCell id="59zhnOQAHoqHDvjKzUpp-145" value="openning_time_pm varchar(250) NOT NULL" style="shape=partialRectangle;overflow=hidden;connectable=0;fillColor=none;top=0;left=0;bottom=0;right=0;align=left;spacingLeft=6;" parent="59zhnOQAHoqHDvjKzUpp-143" vertex="1">
          <mxGeometry x="30" width="290" height="40" as="geometry">
            <mxRectangle width="290" height="40" as="alternateBounds" />
          </mxGeometry>
        </mxCell>
        <mxCell id="59zhnOQAHoqHDvjKzUpp-146" value="" style="shape=partialRectangle;collapsible=0;dropTarget=0;pointerEvents=0;fillColor=none;points=[[0,0.5],[1,0.5]];portConstraint=eastwest;top=0;left=0;right=0;bottom=0;" parent="59zhnOQAHoqHDvjKzUpp-20" vertex="1">
          <mxGeometry y="240" width="320" height="40" as="geometry" />
        </mxCell>
        <mxCell id="59zhnOQAHoqHDvjKzUpp-147" value="" style="shape=partialRectangle;overflow=hidden;connectable=0;fillColor=none;top=0;left=0;bottom=0;right=0;" parent="59zhnOQAHoqHDvjKzUpp-146" vertex="1">
          <mxGeometry width="30" height="40" as="geometry">
            <mxRectangle width="30" height="40" as="alternateBounds" />
          </mxGeometry>
        </mxCell>
        <mxCell id="59zhnOQAHoqHDvjKzUpp-148" value="closing_time_pm varchar(250) NOT NULL" style="shape=partialRectangle;overflow=hidden;connectable=0;fillColor=none;top=0;left=0;bottom=0;right=0;align=left;spacingLeft=6;" parent="59zhnOQAHoqHDvjKzUpp-146" vertex="1">
          <mxGeometry x="30" width="290" height="40" as="geometry">
            <mxRectangle width="290" height="40" as="alternateBounds" />
          </mxGeometry>
        </mxCell>
        <mxCell id="59zhnOQAHoqHDvjKzUpp-29" value="SERVICES" style="shape=table;startSize=40;container=1;collapsible=1;childLayout=tableLayout;fixedRows=1;rowLines=0;fontStyle=1;align=center;resizeLast=1;" parent="1" vertex="1">
          <mxGeometry x="200" y="-540" width="440" height="290" as="geometry" />
        </mxCell>
        <mxCell id="59zhnOQAHoqHDvjKzUpp-30" value="" style="shape=partialRectangle;collapsible=0;dropTarget=0;pointerEvents=0;fillColor=none;points=[[0,0.5],[1,0.5]];portConstraint=eastwest;top=0;left=0;right=0;bottom=1;" parent="59zhnOQAHoqHDvjKzUpp-29" vertex="1">
          <mxGeometry y="40" width="440" height="40" as="geometry" />
        </mxCell>
        <mxCell id="59zhnOQAHoqHDvjKzUpp-31" value="PK" style="shape=partialRectangle;overflow=hidden;connectable=0;fillColor=none;top=0;left=0;bottom=0;right=0;fontStyle=1;" parent="59zhnOQAHoqHDvjKzUpp-30" vertex="1">
          <mxGeometry width="30" height="40" as="geometry">
            <mxRectangle width="30" height="40" as="alternateBounds" />
          </mxGeometry>
        </mxCell>
        <mxCell id="59zhnOQAHoqHDvjKzUpp-32" value="services_id int NOT NULL AUTO_INCREMENT" style="shape=partialRectangle;overflow=hidden;connectable=0;fillColor=none;top=0;left=0;bottom=0;right=0;align=left;spacingLeft=6;fontStyle=5;" parent="59zhnOQAHoqHDvjKzUpp-30" vertex="1">
          <mxGeometry x="30" width="410" height="40" as="geometry">
            <mxRectangle width="410" height="40" as="alternateBounds" />
          </mxGeometry>
        </mxCell>
        <mxCell id="59zhnOQAHoqHDvjKzUpp-33" value="" style="shape=partialRectangle;collapsible=0;dropTarget=0;pointerEvents=0;fillColor=none;points=[[0,0.5],[1,0.5]];portConstraint=eastwest;top=0;left=0;right=0;bottom=0;" parent="59zhnOQAHoqHDvjKzUpp-29" vertex="1">
          <mxGeometry y="80" width="440" height="40" as="geometry" />
        </mxCell>
        <mxCell id="59zhnOQAHoqHDvjKzUpp-34" value="" style="shape=partialRectangle;overflow=hidden;connectable=0;fillColor=none;top=0;left=0;bottom=0;right=0;" parent="59zhnOQAHoqHDvjKzUpp-33" vertex="1">
          <mxGeometry width="30" height="40" as="geometry">
            <mxRectangle width="30" height="40" as="alternateBounds" />
          </mxGeometry>
        </mxCell>
        <mxCell id="59zhnOQAHoqHDvjKzUpp-35" value="name_service enum(&quot;mechanics&quot;, &quot;bodywork&quot;, &quot;maintenance&quot;, &quot;other&quot;)" style="shape=partialRectangle;overflow=hidden;connectable=0;fillColor=none;top=0;left=0;bottom=0;right=0;align=left;spacingLeft=6;" parent="59zhnOQAHoqHDvjKzUpp-33" vertex="1">
          <mxGeometry x="30" width="410" height="40" as="geometry">
            <mxRectangle width="410" height="40" as="alternateBounds" />
          </mxGeometry>
        </mxCell>
        <mxCell id="59zhnOQAHoqHDvjKzUpp-149" value="" style="shape=partialRectangle;collapsible=0;dropTarget=0;pointerEvents=0;fillColor=none;points=[[0,0.5],[1,0.5]];portConstraint=eastwest;top=0;left=0;right=0;bottom=0;" parent="59zhnOQAHoqHDvjKzUpp-29" vertex="1">
          <mxGeometry y="120" width="440" height="40" as="geometry" />
        </mxCell>
        <mxCell id="59zhnOQAHoqHDvjKzUpp-150" value="" style="shape=partialRectangle;overflow=hidden;connectable=0;fillColor=none;top=0;left=0;bottom=0;right=0;" parent="59zhnOQAHoqHDvjKzUpp-149" vertex="1">
          <mxGeometry width="30" height="40" as="geometry">
            <mxRectangle width="30" height="40" as="alternateBounds" />
          </mxGeometry>
        </mxCell>
        <mxCell id="59zhnOQAHoqHDvjKzUpp-151" value="prestation varchar(100) NOT NULL" style="shape=partialRectangle;overflow=hidden;connectable=0;fillColor=none;top=0;left=0;bottom=0;right=0;align=left;spacingLeft=6;" parent="59zhnOQAHoqHDvjKzUpp-149" vertex="1">
          <mxGeometry x="30" width="410" height="40" as="geometry">
            <mxRectangle width="410" height="40" as="alternateBounds" />
          </mxGeometry>
        </mxCell>
        <mxCell id="59zhnOQAHoqHDvjKzUpp-152" value="" style="shape=partialRectangle;collapsible=0;dropTarget=0;pointerEvents=0;fillColor=none;points=[[0,0.5],[1,0.5]];portConstraint=eastwest;top=0;left=0;right=0;bottom=0;" parent="59zhnOQAHoqHDvjKzUpp-29" vertex="1">
          <mxGeometry y="160" width="440" height="40" as="geometry" />
        </mxCell>
        <mxCell id="59zhnOQAHoqHDvjKzUpp-153" value="" style="shape=partialRectangle;overflow=hidden;connectable=0;fillColor=none;top=0;left=0;bottom=0;right=0;" parent="59zhnOQAHoqHDvjKzUpp-152" vertex="1">
          <mxGeometry width="30" height="40" as="geometry">
            <mxRectangle width="30" height="40" as="alternateBounds" />
          </mxGeometry>
        </mxCell>
        <mxCell id="59zhnOQAHoqHDvjKzUpp-154" value="description text NOT NULL" style="shape=partialRectangle;overflow=hidden;connectable=0;fillColor=none;top=0;left=0;bottom=0;right=0;align=left;spacingLeft=6;" parent="59zhnOQAHoqHDvjKzUpp-152" vertex="1">
          <mxGeometry x="30" width="410" height="40" as="geometry">
            <mxRectangle width="410" height="40" as="alternateBounds" />
          </mxGeometry>
        </mxCell>
        <mxCell id="59zhnOQAHoqHDvjKzUpp-155" value="" style="shape=partialRectangle;collapsible=0;dropTarget=0;pointerEvents=0;fillColor=none;points=[[0,0.5],[1,0.5]];portConstraint=eastwest;top=0;left=0;right=0;bottom=0;" parent="59zhnOQAHoqHDvjKzUpp-29" vertex="1">
          <mxGeometry y="200" width="440" height="40" as="geometry" />
        </mxCell>
        <mxCell id="59zhnOQAHoqHDvjKzUpp-156" value="" style="shape=partialRectangle;overflow=hidden;connectable=0;fillColor=none;top=0;left=0;bottom=0;right=0;" parent="59zhnOQAHoqHDvjKzUpp-155" vertex="1">
          <mxGeometry width="30" height="40" as="geometry">
            <mxRectangle width="30" height="40" as="alternateBounds" />
          </mxGeometry>
        </mxCell>
        <mxCell id="59zhnOQAHoqHDvjKzUpp-157" value="price num(5, 2) NOT NULL" style="shape=partialRectangle;overflow=hidden;connectable=0;fillColor=none;top=0;left=0;bottom=0;right=0;align=left;spacingLeft=6;" parent="59zhnOQAHoqHDvjKzUpp-155" vertex="1">
          <mxGeometry x="30" width="410" height="40" as="geometry">
            <mxRectangle width="410" height="40" as="alternateBounds" />
          </mxGeometry>
        </mxCell>
        <mxCell id="59zhnOQAHoqHDvjKzUpp-158" value="" style="shape=partialRectangle;collapsible=0;dropTarget=0;pointerEvents=0;fillColor=none;points=[[0,0.5],[1,0.5]];portConstraint=eastwest;top=0;left=0;right=0;bottom=0;" parent="59zhnOQAHoqHDvjKzUpp-29" vertex="1">
          <mxGeometry y="240" width="440" height="40" as="geometry" />
        </mxCell>
        <mxCell id="59zhnOQAHoqHDvjKzUpp-159" value="" style="shape=partialRectangle;overflow=hidden;connectable=0;fillColor=none;top=0;left=0;bottom=0;right=0;" parent="59zhnOQAHoqHDvjKzUpp-158" vertex="1">
          <mxGeometry width="30" height="40" as="geometry">
            <mxRectangle width="30" height="40" as="alternateBounds" />
          </mxGeometry>
        </mxCell>
        <mxCell id="59zhnOQAHoqHDvjKzUpp-160" value="&#xa;prestation_time time" style="shape=partialRectangle;overflow=hidden;connectable=0;fillColor=none;top=0;left=0;bottom=0;right=0;align=left;spacingLeft=6;" parent="59zhnOQAHoqHDvjKzUpp-158" vertex="1">
          <mxGeometry x="30" width="410" height="40" as="geometry">
            <mxRectangle width="410" height="40" as="alternateBounds" />
          </mxGeometry>
        </mxCell>
        <mxCell id="59zhnOQAHoqHDvjKzUpp-36" value="TESTIMONIALS" style="shape=table;startSize=30;container=1;collapsible=1;childLayout=tableLayout;fixedRows=1;rowLines=0;fontStyle=1;align=center;resizeLast=1;" parent="1" vertex="1">
          <mxGeometry x="880" y="-320" width="250" height="260" as="geometry" />
        </mxCell>
        <mxCell id="59zhnOQAHoqHDvjKzUpp-37" value="" style="shape=partialRectangle;collapsible=0;dropTarget=0;pointerEvents=0;fillColor=none;points=[[0,0.5],[1,0.5]];portConstraint=eastwest;top=0;left=0;right=0;bottom=1;" parent="59zhnOQAHoqHDvjKzUpp-36" vertex="1">
          <mxGeometry y="30" width="250" height="30" as="geometry" />
        </mxCell>
        <mxCell id="59zhnOQAHoqHDvjKzUpp-38" value="PK" style="shape=partialRectangle;overflow=hidden;connectable=0;fillColor=none;top=0;left=0;bottom=0;right=0;fontStyle=1;" parent="59zhnOQAHoqHDvjKzUpp-37" vertex="1">
          <mxGeometry width="30" height="30" as="geometry">
            <mxRectangle width="30" height="30" as="alternateBounds" />
          </mxGeometry>
        </mxCell>
        <mxCell id="59zhnOQAHoqHDvjKzUpp-39" value="testimonial_id int NOT NULL AUTO_INCREMENT" style="shape=partialRectangle;overflow=hidden;connectable=0;fillColor=none;top=0;left=0;bottom=0;right=0;align=left;spacingLeft=6;fontStyle=5;" parent="59zhnOQAHoqHDvjKzUpp-37" vertex="1">
          <mxGeometry x="30" width="220" height="30" as="geometry">
            <mxRectangle width="220" height="30" as="alternateBounds" />
          </mxGeometry>
        </mxCell>
        <mxCell id="59zhnOQAHoqHDvjKzUpp-40" value="" style="shape=partialRectangle;collapsible=0;dropTarget=0;pointerEvents=0;fillColor=none;points=[[0,0.5],[1,0.5]];portConstraint=eastwest;top=0;left=0;right=0;bottom=0;" parent="59zhnOQAHoqHDvjKzUpp-36" vertex="1">
          <mxGeometry y="60" width="250" height="40" as="geometry" />
        </mxCell>
        <mxCell id="59zhnOQAHoqHDvjKzUpp-41" value="FK" style="shape=partialRectangle;overflow=hidden;connectable=0;fillColor=none;top=0;left=0;bottom=0;right=0;" parent="59zhnOQAHoqHDvjKzUpp-40" vertex="1">
          <mxGeometry width="30" height="40" as="geometry">
            <mxRectangle width="30" height="40" as="alternateBounds" />
          </mxGeometry>
        </mxCell>
        <mxCell id="59zhnOQAHoqHDvjKzUpp-42" value="contact_id int NOT NULL" style="shape=partialRectangle;overflow=hidden;connectable=0;fillColor=none;top=0;left=0;bottom=0;right=0;align=left;spacingLeft=6;" parent="59zhnOQAHoqHDvjKzUpp-40" vertex="1">
          <mxGeometry x="30" width="220" height="40" as="geometry">
            <mxRectangle width="220" height="40" as="alternateBounds" />
          </mxGeometry>
        </mxCell>
        <mxCell id="59zhnOQAHoqHDvjKzUpp-101" value="" style="shape=partialRectangle;collapsible=0;dropTarget=0;pointerEvents=0;fillColor=none;points=[[0,0.5],[1,0.5]];portConstraint=eastwest;top=0;left=0;right=0;bottom=0;" parent="59zhnOQAHoqHDvjKzUpp-36" vertex="1">
          <mxGeometry y="100" width="250" height="40" as="geometry" />
        </mxCell>
        <mxCell id="59zhnOQAHoqHDvjKzUpp-102" value="" style="shape=partialRectangle;overflow=hidden;connectable=0;fillColor=none;top=0;left=0;bottom=0;right=0;" parent="59zhnOQAHoqHDvjKzUpp-101" vertex="1">
          <mxGeometry width="30" height="40" as="geometry">
            <mxRectangle width="30" height="40" as="alternateBounds" />
          </mxGeometry>
        </mxCell>
        <mxCell id="59zhnOQAHoqHDvjKzUpp-103" value="message text" style="shape=partialRectangle;overflow=hidden;connectable=0;fillColor=none;top=0;left=0;bottom=0;right=0;align=left;spacingLeft=6;" parent="59zhnOQAHoqHDvjKzUpp-101" vertex="1">
          <mxGeometry x="30" width="220" height="40" as="geometry">
            <mxRectangle width="220" height="40" as="alternateBounds" />
          </mxGeometry>
        </mxCell>
        <mxCell id="59zhnOQAHoqHDvjKzUpp-104" value="" style="shape=partialRectangle;collapsible=0;dropTarget=0;pointerEvents=0;fillColor=none;points=[[0,0.5],[1,0.5]];portConstraint=eastwest;top=0;left=0;right=0;bottom=0;" parent="59zhnOQAHoqHDvjKzUpp-36" vertex="1">
          <mxGeometry y="140" width="250" height="40" as="geometry" />
        </mxCell>
        <mxCell id="59zhnOQAHoqHDvjKzUpp-105" value="" style="shape=partialRectangle;overflow=hidden;connectable=0;fillColor=none;top=0;left=0;bottom=0;right=0;" parent="59zhnOQAHoqHDvjKzUpp-104" vertex="1">
          <mxGeometry width="30" height="40" as="geometry">
            <mxRectangle width="30" height="40" as="alternateBounds" />
          </mxGeometry>
        </mxCell>
        <mxCell id="59zhnOQAHoqHDvjKzUpp-106" value="statut enum(&quot;inProgress&quot;, &quot;Done&quot;) NOT NULL" style="shape=partialRectangle;overflow=hidden;connectable=0;fillColor=none;top=0;left=0;bottom=0;right=0;align=left;spacingLeft=6;" parent="59zhnOQAHoqHDvjKzUpp-104" vertex="1">
          <mxGeometry x="30" width="220" height="40" as="geometry">
            <mxRectangle width="220" height="40" as="alternateBounds" />
          </mxGeometry>
        </mxCell>
        <mxCell id="59zhnOQAHoqHDvjKzUpp-107" value="" style="shape=partialRectangle;collapsible=0;dropTarget=0;pointerEvents=0;fillColor=none;points=[[0,0.5],[1,0.5]];portConstraint=eastwest;top=0;left=0;right=0;bottom=0;" parent="59zhnOQAHoqHDvjKzUpp-36" vertex="1">
          <mxGeometry y="180" width="250" height="40" as="geometry" />
        </mxCell>
        <mxCell id="59zhnOQAHoqHDvjKzUpp-108" value="" style="shape=partialRectangle;overflow=hidden;connectable=0;fillColor=none;top=0;left=0;bottom=0;right=0;" parent="59zhnOQAHoqHDvjKzUpp-107" vertex="1">
          <mxGeometry width="30" height="40" as="geometry">
            <mxRectangle width="30" height="40" as="alternateBounds" />
          </mxGeometry>
        </mxCell>
        <mxCell id="59zhnOQAHoqHDvjKzUpp-109" value="createdAt datetime NOT NULL" style="shape=partialRectangle;overflow=hidden;connectable=0;fillColor=none;top=0;left=0;bottom=0;right=0;align=left;spacingLeft=6;" parent="59zhnOQAHoqHDvjKzUpp-107" vertex="1">
          <mxGeometry x="30" width="220" height="40" as="geometry">
            <mxRectangle width="220" height="40" as="alternateBounds" />
          </mxGeometry>
        </mxCell>
        <mxCell id="59zhnOQAHoqHDvjKzUpp-110" value="" style="shape=partialRectangle;collapsible=0;dropTarget=0;pointerEvents=0;fillColor=none;points=[[0,0.5],[1,0.5]];portConstraint=eastwest;top=0;left=0;right=0;bottom=0;" parent="59zhnOQAHoqHDvjKzUpp-36" vertex="1">
          <mxGeometry y="220" width="250" height="40" as="geometry" />
        </mxCell>
        <mxCell id="59zhnOQAHoqHDvjKzUpp-111" value="FK" style="shape=partialRectangle;overflow=hidden;connectable=0;fillColor=none;top=0;left=0;bottom=0;right=0;" parent="59zhnOQAHoqHDvjKzUpp-110" vertex="1">
          <mxGeometry width="30" height="40" as="geometry">
            <mxRectangle width="30" height="40" as="alternateBounds" />
          </mxGeometry>
        </mxCell>
        <mxCell id="59zhnOQAHoqHDvjKzUpp-112" value="user_id varchar(5) NOT NULL" style="shape=partialRectangle;overflow=hidden;connectable=0;fillColor=none;top=0;left=0;bottom=0;right=0;align=left;spacingLeft=6;" parent="59zhnOQAHoqHDvjKzUpp-110" vertex="1">
          <mxGeometry x="30" width="220" height="40" as="geometry">
            <mxRectangle width="220" height="40" as="alternateBounds" />
          </mxGeometry>
        </mxCell>
        <mxCell id="59zhnOQAHoqHDvjKzUpp-43" style="edgeStyle=orthogonalEdgeStyle;rounded=0;orthogonalLoop=1;jettySize=auto;html=1;entryX=0;entryY=0.5;entryDx=0;entryDy=0;exitX=0;exitY=0.5;exitDx=0;exitDy=0;fillColor=#fff2cc;strokeColor=#d6b656;" parent="1" source="C-vyLk0tnHw3VtMMgP7b-24" target="59zhnOQAHoqHDvjKzUpp-110" edge="1">
          <mxGeometry relative="1" as="geometry">
            <mxPoint x="500" y="-600" as="targetPoint" />
            <Array as="points">
              <mxPoint x="790" y="190" />
              <mxPoint x="790" y="-80" />
            </Array>
          </mxGeometry>
        </mxCell>
        <mxCell id="59zhnOQAHoqHDvjKzUpp-44" value="CONTACT" style="shape=table;startSize=40;container=1;collapsible=1;childLayout=tableLayout;fixedRows=1;rowLines=0;fontStyle=1;align=center;resizeLast=1;" parent="1" vertex="1">
          <mxGeometry x="830" y="-1040" width="250" height="320" as="geometry" />
        </mxCell>
        <mxCell id="59zhnOQAHoqHDvjKzUpp-45" value="" style="shape=partialRectangle;collapsible=0;dropTarget=0;pointerEvents=0;fillColor=none;points=[[0,0.5],[1,0.5]];portConstraint=eastwest;top=0;left=0;right=0;bottom=1;" parent="59zhnOQAHoqHDvjKzUpp-44" vertex="1">
          <mxGeometry y="40" width="250" height="40" as="geometry" />
        </mxCell>
        <mxCell id="59zhnOQAHoqHDvjKzUpp-46" value="PK" style="shape=partialRectangle;overflow=hidden;connectable=0;fillColor=none;top=0;left=0;bottom=0;right=0;fontStyle=1;" parent="59zhnOQAHoqHDvjKzUpp-45" vertex="1">
          <mxGeometry width="30" height="40" as="geometry">
            <mxRectangle width="30" height="40" as="alternateBounds" />
          </mxGeometry>
        </mxCell>
        <mxCell id="59zhnOQAHoqHDvjKzUpp-47" value="contact_id int NOT NULL AUTO_INCREMENT" style="shape=partialRectangle;overflow=hidden;connectable=0;fillColor=none;top=0;left=0;bottom=0;right=0;align=left;spacingLeft=6;fontStyle=5;" parent="59zhnOQAHoqHDvjKzUpp-45" vertex="1">
          <mxGeometry x="30" width="220" height="40" as="geometry">
            <mxRectangle width="220" height="40" as="alternateBounds" />
          </mxGeometry>
        </mxCell>
        <mxCell id="59zhnOQAHoqHDvjKzUpp-48" value="" style="shape=partialRectangle;collapsible=0;dropTarget=0;pointerEvents=0;fillColor=none;points=[[0,0.5],[1,0.5]];portConstraint=eastwest;top=0;left=0;right=0;bottom=0;" parent="59zhnOQAHoqHDvjKzUpp-44" vertex="1">
          <mxGeometry y="80" width="250" height="40" as="geometry" />
        </mxCell>
        <mxCell id="59zhnOQAHoqHDvjKzUpp-49" value="" style="shape=partialRectangle;overflow=hidden;connectable=0;fillColor=none;top=0;left=0;bottom=0;right=0;" parent="59zhnOQAHoqHDvjKzUpp-48" vertex="1">
          <mxGeometry width="30" height="40" as="geometry">
            <mxRectangle width="30" height="40" as="alternateBounds" />
          </mxGeometry>
        </mxCell>
        <mxCell id="59zhnOQAHoqHDvjKzUpp-50" value="last_name varchar(60) NOT NULL" style="shape=partialRectangle;overflow=hidden;connectable=0;fillColor=none;top=0;left=0;bottom=0;right=0;align=left;spacingLeft=6;" parent="59zhnOQAHoqHDvjKzUpp-48" vertex="1">
          <mxGeometry x="30" width="220" height="40" as="geometry">
            <mxRectangle width="220" height="40" as="alternateBounds" />
          </mxGeometry>
        </mxCell>
        <mxCell id="59zhnOQAHoqHDvjKzUpp-116" value="" style="shape=partialRectangle;collapsible=0;dropTarget=0;pointerEvents=0;fillColor=none;points=[[0,0.5],[1,0.5]];portConstraint=eastwest;top=0;left=0;right=0;bottom=0;" parent="59zhnOQAHoqHDvjKzUpp-44" vertex="1">
          <mxGeometry y="120" width="250" height="40" as="geometry" />
        </mxCell>
        <mxCell id="59zhnOQAHoqHDvjKzUpp-117" value="" style="shape=partialRectangle;overflow=hidden;connectable=0;fillColor=none;top=0;left=0;bottom=0;right=0;" parent="59zhnOQAHoqHDvjKzUpp-116" vertex="1">
          <mxGeometry width="30" height="40" as="geometry">
            <mxRectangle width="30" height="40" as="alternateBounds" />
          </mxGeometry>
        </mxCell>
        <mxCell id="59zhnOQAHoqHDvjKzUpp-118" value="&#xa;first_name varchar(60) NOT NULL" style="shape=partialRectangle;overflow=hidden;connectable=0;fillColor=none;top=0;left=0;bottom=0;right=0;align=left;spacingLeft=6;" parent="59zhnOQAHoqHDvjKzUpp-116" vertex="1">
          <mxGeometry x="30" width="220" height="40" as="geometry">
            <mxRectangle width="220" height="40" as="alternateBounds" />
          </mxGeometry>
        </mxCell>
        <mxCell id="59zhnOQAHoqHDvjKzUpp-119" value="" style="shape=partialRectangle;collapsible=0;dropTarget=0;pointerEvents=0;fillColor=none;points=[[0,0.5],[1,0.5]];portConstraint=eastwest;top=0;left=0;right=0;bottom=0;" parent="59zhnOQAHoqHDvjKzUpp-44" vertex="1">
          <mxGeometry y="160" width="250" height="40" as="geometry" />
        </mxCell>
        <mxCell id="59zhnOQAHoqHDvjKzUpp-120" value="" style="shape=partialRectangle;overflow=hidden;connectable=0;fillColor=none;top=0;left=0;bottom=0;right=0;" parent="59zhnOQAHoqHDvjKzUpp-119" vertex="1">
          <mxGeometry width="30" height="40" as="geometry">
            <mxRectangle width="30" height="40" as="alternateBounds" />
          </mxGeometry>
        </mxCell>
        <mxCell id="59zhnOQAHoqHDvjKzUpp-121" value="adresse varchar(100)" style="shape=partialRectangle;overflow=hidden;connectable=0;fillColor=none;top=0;left=0;bottom=0;right=0;align=left;spacingLeft=6;" parent="59zhnOQAHoqHDvjKzUpp-119" vertex="1">
          <mxGeometry x="30" width="220" height="40" as="geometry">
            <mxRectangle width="220" height="40" as="alternateBounds" />
          </mxGeometry>
        </mxCell>
        <mxCell id="59zhnOQAHoqHDvjKzUpp-123" value="" style="shape=partialRectangle;collapsible=0;dropTarget=0;pointerEvents=0;fillColor=none;points=[[0,0.5],[1,0.5]];portConstraint=eastwest;top=0;left=0;right=0;bottom=0;" parent="59zhnOQAHoqHDvjKzUpp-44" vertex="1">
          <mxGeometry y="200" width="250" height="40" as="geometry" />
        </mxCell>
        <mxCell id="59zhnOQAHoqHDvjKzUpp-124" value="" style="shape=partialRectangle;overflow=hidden;connectable=0;fillColor=none;top=0;left=0;bottom=0;right=0;" parent="59zhnOQAHoqHDvjKzUpp-123" vertex="1">
          <mxGeometry width="30" height="40" as="geometry">
            <mxRectangle width="30" height="40" as="alternateBounds" />
          </mxGeometry>
        </mxCell>
        <mxCell id="59zhnOQAHoqHDvjKzUpp-125" value="post_code varchar(5)" style="shape=partialRectangle;overflow=hidden;connectable=0;fillColor=none;top=0;left=0;bottom=0;right=0;align=left;spacingLeft=6;" parent="59zhnOQAHoqHDvjKzUpp-123" vertex="1">
          <mxGeometry x="30" width="220" height="40" as="geometry">
            <mxRectangle width="220" height="40" as="alternateBounds" />
          </mxGeometry>
        </mxCell>
        <mxCell id="59zhnOQAHoqHDvjKzUpp-126" value="" style="shape=partialRectangle;collapsible=0;dropTarget=0;pointerEvents=0;fillColor=none;points=[[0,0.5],[1,0.5]];portConstraint=eastwest;top=0;left=0;right=0;bottom=0;" parent="59zhnOQAHoqHDvjKzUpp-44" vertex="1">
          <mxGeometry y="240" width="250" height="40" as="geometry" />
        </mxCell>
        <mxCell id="59zhnOQAHoqHDvjKzUpp-127" value="" style="shape=partialRectangle;overflow=hidden;connectable=0;fillColor=none;top=0;left=0;bottom=0;right=0;" parent="59zhnOQAHoqHDvjKzUpp-126" vertex="1">
          <mxGeometry width="30" height="40" as="geometry">
            <mxRectangle width="30" height="40" as="alternateBounds" />
          </mxGeometry>
        </mxCell>
        <mxCell id="59zhnOQAHoqHDvjKzUpp-128" value="email varchar(250) NOT NULL" style="shape=partialRectangle;overflow=hidden;connectable=0;fillColor=none;top=0;left=0;bottom=0;right=0;align=left;spacingLeft=6;" parent="59zhnOQAHoqHDvjKzUpp-126" vertex="1">
          <mxGeometry x="30" width="220" height="40" as="geometry">
            <mxRectangle width="220" height="40" as="alternateBounds" />
          </mxGeometry>
        </mxCell>
        <mxCell id="59zhnOQAHoqHDvjKzUpp-129" value="" style="shape=partialRectangle;collapsible=0;dropTarget=0;pointerEvents=0;fillColor=none;points=[[0,0.5],[1,0.5]];portConstraint=eastwest;top=0;left=0;right=0;bottom=0;" parent="59zhnOQAHoqHDvjKzUpp-44" vertex="1">
          <mxGeometry y="280" width="250" height="40" as="geometry" />
        </mxCell>
        <mxCell id="59zhnOQAHoqHDvjKzUpp-130" value="" style="shape=partialRectangle;overflow=hidden;connectable=0;fillColor=none;top=0;left=0;bottom=0;right=0;" parent="59zhnOQAHoqHDvjKzUpp-129" vertex="1">
          <mxGeometry width="30" height="40" as="geometry">
            <mxRectangle width="30" height="40" as="alternateBounds" />
          </mxGeometry>
        </mxCell>
        <mxCell id="59zhnOQAHoqHDvjKzUpp-131" value="phoneNumber varchar(20)" style="shape=partialRectangle;overflow=hidden;connectable=0;fillColor=none;top=0;left=0;bottom=0;right=0;align=left;spacingLeft=6;" parent="59zhnOQAHoqHDvjKzUpp-129" vertex="1">
          <mxGeometry x="30" width="220" height="40" as="geometry">
            <mxRectangle width="220" height="40" as="alternateBounds" />
          </mxGeometry>
        </mxCell>
        <mxCell id="59zhnOQAHoqHDvjKzUpp-51" style="edgeStyle=orthogonalEdgeStyle;rounded=0;orthogonalLoop=1;jettySize=auto;html=1;exitX=0;exitY=0.5;exitDx=0;exitDy=0;entryX=0;entryY=0.5;entryDx=0;entryDy=0;fillColor=#d5e8d4;strokeColor=#82b366;" parent="1" source="59zhnOQAHoqHDvjKzUpp-45" target="59zhnOQAHoqHDvjKzUpp-40" edge="1">
          <mxGeometry relative="1" as="geometry">
            <Array as="points">
              <mxPoint x="720" y="-980" />
              <mxPoint x="720" y="-240" />
            </Array>
          </mxGeometry>
        </mxCell>
        <mxCell id="59zhnOQAHoqHDvjKzUpp-162" value="CONTACT_FORM" style="shape=table;startSize=30;container=1;collapsible=1;childLayout=tableLayout;fixedRows=1;rowLines=0;fontStyle=1;align=center;resizeLast=1;" parent="1" vertex="1">
          <mxGeometry x="270" y="-940" width="370" height="310" as="geometry" />
        </mxCell>
        <mxCell id="59zhnOQAHoqHDvjKzUpp-163" value="" style="shape=partialRectangle;collapsible=0;dropTarget=0;pointerEvents=0;fillColor=none;points=[[0,0.5],[1,0.5]];portConstraint=eastwest;top=0;left=0;right=0;bottom=1;" parent="59zhnOQAHoqHDvjKzUpp-162" vertex="1">
          <mxGeometry y="30" width="370" height="30" as="geometry" />
        </mxCell>
        <mxCell id="59zhnOQAHoqHDvjKzUpp-164" value="PK" style="shape=partialRectangle;overflow=hidden;connectable=0;fillColor=none;top=0;left=0;bottom=0;right=0;fontStyle=1;" parent="59zhnOQAHoqHDvjKzUpp-163" vertex="1">
          <mxGeometry width="30" height="30" as="geometry">
            <mxRectangle width="30" height="30" as="alternateBounds" />
          </mxGeometry>
        </mxCell>
        <mxCell id="59zhnOQAHoqHDvjKzUpp-165" value="contact_form_id int NOT NULL AUTO_INCREMENT" style="shape=partialRectangle;overflow=hidden;connectable=0;fillColor=none;top=0;left=0;bottom=0;right=0;align=left;spacingLeft=6;fontStyle=5;" parent="59zhnOQAHoqHDvjKzUpp-163" vertex="1">
          <mxGeometry x="30" width="340" height="30" as="geometry">
            <mxRectangle width="340" height="30" as="alternateBounds" />
          </mxGeometry>
        </mxCell>
        <mxCell id="59zhnOQAHoqHDvjKzUpp-166" value="" style="shape=partialRectangle;collapsible=0;dropTarget=0;pointerEvents=0;fillColor=none;points=[[0,0.5],[1,0.5]];portConstraint=eastwest;top=0;left=0;right=0;bottom=0;" parent="59zhnOQAHoqHDvjKzUpp-162" vertex="1">
          <mxGeometry y="60" width="370" height="50" as="geometry" />
        </mxCell>
        <mxCell id="59zhnOQAHoqHDvjKzUpp-167" value="FK" style="shape=partialRectangle;overflow=hidden;connectable=0;fillColor=none;top=0;left=0;bottom=0;right=0;" parent="59zhnOQAHoqHDvjKzUpp-166" vertex="1">
          <mxGeometry width="30" height="50" as="geometry">
            <mxRectangle width="30" height="50" as="alternateBounds" />
          </mxGeometry>
        </mxCell>
        <mxCell id="59zhnOQAHoqHDvjKzUpp-168" value="contact_id int NOT NULL" style="shape=partialRectangle;overflow=hidden;connectable=0;fillColor=none;top=0;left=0;bottom=0;right=0;align=left;spacingLeft=6;" parent="59zhnOQAHoqHDvjKzUpp-166" vertex="1">
          <mxGeometry x="30" width="340" height="50" as="geometry">
            <mxRectangle width="340" height="50" as="alternateBounds" />
          </mxGeometry>
        </mxCell>
        <mxCell id="59zhnOQAHoqHDvjKzUpp-169" value="" style="shape=partialRectangle;collapsible=0;dropTarget=0;pointerEvents=0;fillColor=none;points=[[0,0.5],[1,0.5]];portConstraint=eastwest;top=0;left=0;right=0;bottom=0;" parent="59zhnOQAHoqHDvjKzUpp-162" vertex="1">
          <mxGeometry y="110" width="370" height="40" as="geometry" />
        </mxCell>
        <mxCell id="59zhnOQAHoqHDvjKzUpp-170" value="FK" style="shape=partialRectangle;overflow=hidden;connectable=0;fillColor=none;top=0;left=0;bottom=0;right=0;" parent="59zhnOQAHoqHDvjKzUpp-169" vertex="1">
          <mxGeometry width="30" height="40" as="geometry">
            <mxRectangle width="30" height="40" as="alternateBounds" />
          </mxGeometry>
        </mxCell>
        <mxCell id="59zhnOQAHoqHDvjKzUpp-171" value="services_id int NOT NULL" style="shape=partialRectangle;overflow=hidden;connectable=0;fillColor=none;top=0;left=0;bottom=0;right=0;align=left;spacingLeft=6;" parent="59zhnOQAHoqHDvjKzUpp-169" vertex="1">
          <mxGeometry x="30" width="340" height="40" as="geometry">
            <mxRectangle width="340" height="40" as="alternateBounds" />
          </mxGeometry>
        </mxCell>
        <mxCell id="59zhnOQAHoqHDvjKzUpp-172" value="" style="shape=partialRectangle;collapsible=0;dropTarget=0;pointerEvents=0;fillColor=none;points=[[0,0.5],[1,0.5]];portConstraint=eastwest;top=0;left=0;right=0;bottom=0;" parent="59zhnOQAHoqHDvjKzUpp-162" vertex="1">
          <mxGeometry y="150" width="370" height="40" as="geometry" />
        </mxCell>
        <mxCell id="59zhnOQAHoqHDvjKzUpp-173" value="" style="shape=partialRectangle;overflow=hidden;connectable=0;fillColor=none;top=0;left=0;bottom=0;right=0;" parent="59zhnOQAHoqHDvjKzUpp-172" vertex="1">
          <mxGeometry width="30" height="40" as="geometry">
            <mxRectangle width="30" height="40" as="alternateBounds" />
          </mxGeometry>
        </mxCell>
        <mxCell id="59zhnOQAHoqHDvjKzUpp-174" value="message text NOT NULL" style="shape=partialRectangle;overflow=hidden;connectable=0;fillColor=none;top=0;left=0;bottom=0;right=0;align=left;spacingLeft=6;" parent="59zhnOQAHoqHDvjKzUpp-172" vertex="1">
          <mxGeometry x="30" width="340" height="40" as="geometry">
            <mxRectangle width="340" height="40" as="alternateBounds" />
          </mxGeometry>
        </mxCell>
        <mxCell id="59zhnOQAHoqHDvjKzUpp-175" value="" style="shape=partialRectangle;collapsible=0;dropTarget=0;pointerEvents=0;fillColor=none;points=[[0,0.5],[1,0.5]];portConstraint=eastwest;top=0;left=0;right=0;bottom=0;" parent="59zhnOQAHoqHDvjKzUpp-162" vertex="1">
          <mxGeometry y="190" width="370" height="40" as="geometry" />
        </mxCell>
        <mxCell id="59zhnOQAHoqHDvjKzUpp-176" value="" style="shape=partialRectangle;overflow=hidden;connectable=0;fillColor=none;top=0;left=0;bottom=0;right=0;" parent="59zhnOQAHoqHDvjKzUpp-175" vertex="1">
          <mxGeometry width="30" height="40" as="geometry">
            <mxRectangle width="30" height="40" as="alternateBounds" />
          </mxGeometry>
        </mxCell>
        <mxCell id="59zhnOQAHoqHDvjKzUpp-177" value="statut enum(&quot;inProgress&quot;, &quot;Done&quot;) NOT NULL" style="shape=partialRectangle;overflow=hidden;connectable=0;fillColor=none;top=0;left=0;bottom=0;right=0;align=left;spacingLeft=6;" parent="59zhnOQAHoqHDvjKzUpp-175" vertex="1">
          <mxGeometry x="30" width="340" height="40" as="geometry">
            <mxRectangle width="340" height="40" as="alternateBounds" />
          </mxGeometry>
        </mxCell>
        <mxCell id="59zhnOQAHoqHDvjKzUpp-178" value="" style="shape=partialRectangle;collapsible=0;dropTarget=0;pointerEvents=0;fillColor=none;points=[[0,0.5],[1,0.5]];portConstraint=eastwest;top=0;left=0;right=0;bottom=0;" parent="59zhnOQAHoqHDvjKzUpp-162" vertex="1">
          <mxGeometry y="230" width="370" height="40" as="geometry" />
        </mxCell>
        <mxCell id="59zhnOQAHoqHDvjKzUpp-179" value="" style="shape=partialRectangle;overflow=hidden;connectable=0;fillColor=none;top=0;left=0;bottom=0;right=0;" parent="59zhnOQAHoqHDvjKzUpp-178" vertex="1">
          <mxGeometry width="30" height="40" as="geometry">
            <mxRectangle width="30" height="40" as="alternateBounds" />
          </mxGeometry>
        </mxCell>
        <mxCell id="59zhnOQAHoqHDvjKzUpp-180" value="email varchar(250) NOT NULL" style="shape=partialRectangle;overflow=hidden;connectable=0;fillColor=none;top=0;left=0;bottom=0;right=0;align=left;spacingLeft=6;" parent="59zhnOQAHoqHDvjKzUpp-178" vertex="1">
          <mxGeometry x="30" width="340" height="40" as="geometry">
            <mxRectangle width="340" height="40" as="alternateBounds" />
          </mxGeometry>
        </mxCell>
        <mxCell id="59zhnOQAHoqHDvjKzUpp-181" value="" style="shape=partialRectangle;collapsible=0;dropTarget=0;pointerEvents=0;fillColor=none;points=[[0,0.5],[1,0.5]];portConstraint=eastwest;top=0;left=0;right=0;bottom=0;" parent="59zhnOQAHoqHDvjKzUpp-162" vertex="1">
          <mxGeometry y="270" width="370" height="40" as="geometry" />
        </mxCell>
        <mxCell id="59zhnOQAHoqHDvjKzUpp-182" value="" style="shape=partialRectangle;overflow=hidden;connectable=0;fillColor=none;top=0;left=0;bottom=0;right=0;" parent="59zhnOQAHoqHDvjKzUpp-181" vertex="1">
          <mxGeometry width="30" height="40" as="geometry">
            <mxRectangle width="30" height="40" as="alternateBounds" />
          </mxGeometry>
        </mxCell>
        <mxCell id="59zhnOQAHoqHDvjKzUpp-183" value="phoneNumber varchar(20)" style="shape=partialRectangle;overflow=hidden;connectable=0;fillColor=none;top=0;left=0;bottom=0;right=0;align=left;spacingLeft=6;" parent="59zhnOQAHoqHDvjKzUpp-181" vertex="1">
          <mxGeometry x="30" width="340" height="40" as="geometry">
            <mxRectangle width="340" height="40" as="alternateBounds" />
          </mxGeometry>
        </mxCell>
        <mxCell id="59zhnOQAHoqHDvjKzUpp-184" style="edgeStyle=orthogonalEdgeStyle;rounded=0;orthogonalLoop=1;jettySize=auto;html=1;exitX=0;exitY=0.5;exitDx=0;exitDy=0;entryX=0;entryY=0.5;entryDx=0;entryDy=0;" parent="1" source="59zhnOQAHoqHDvjKzUpp-30" target="59zhnOQAHoqHDvjKzUpp-169" edge="1">
          <mxGeometry relative="1" as="geometry">
            <Array as="points">
              <mxPoint x="130" y="-480" />
              <mxPoint x="130" y="-810" />
            </Array>
          </mxGeometry>
        </mxCell>
        <mxCell id="59zhnOQAHoqHDvjKzUpp-185" style="edgeStyle=orthogonalEdgeStyle;rounded=0;orthogonalLoop=1;jettySize=auto;html=1;fillColor=#d5e8d4;strokeColor=#82b366;" parent="1" source="59zhnOQAHoqHDvjKzUpp-45" target="59zhnOQAHoqHDvjKzUpp-166" edge="1">
          <mxGeometry relative="1" as="geometry">
            <Array as="points">
              <mxPoint x="200" y="-980" />
              <mxPoint x="200" y="-855" />
            </Array>
          </mxGeometry>
        </mxCell>
        <mxCell id="59zhnOQAHoqHDvjKzUpp-186" value="VEHICLE_DETAILS" style="shape=table;startSize=40;container=1;collapsible=1;childLayout=tableLayout;fixedRows=1;rowLines=0;fontStyle=1;align=center;resizeLast=1;" parent="1" vertex="1">
          <mxGeometry x="1360" y="-520" width="320" height="360.00000000000045" as="geometry" />
        </mxCell>
        <mxCell id="59zhnOQAHoqHDvjKzUpp-187" value="" style="shape=partialRectangle;collapsible=0;dropTarget=0;pointerEvents=0;fillColor=none;points=[[0,0.5],[1,0.5]];portConstraint=eastwest;top=0;left=0;right=0;bottom=1;" parent="59zhnOQAHoqHDvjKzUpp-186" vertex="1">
          <mxGeometry y="40" width="320" height="40" as="geometry" />
        </mxCell>
        <mxCell id="59zhnOQAHoqHDvjKzUpp-188" value="PK" style="shape=partialRectangle;overflow=hidden;connectable=0;fillColor=none;top=0;left=0;bottom=0;right=0;fontStyle=1;" parent="59zhnOQAHoqHDvjKzUpp-187" vertex="1">
          <mxGeometry width="30" height="40" as="geometry">
            <mxRectangle width="30" height="40" as="alternateBounds" />
          </mxGeometry>
        </mxCell>
        <mxCell id="59zhnOQAHoqHDvjKzUpp-189" value="vehicles_id int NOT NULL AUTO_INCREMENT" style="shape=partialRectangle;overflow=hidden;connectable=0;fillColor=none;top=0;left=0;bottom=0;right=0;align=left;spacingLeft=6;fontStyle=5;" parent="59zhnOQAHoqHDvjKzUpp-187" vertex="1">
          <mxGeometry x="30" width="290" height="40" as="geometry">
            <mxRectangle width="290" height="40" as="alternateBounds" />
          </mxGeometry>
        </mxCell>
        <mxCell id="59zhnOQAHoqHDvjKzUpp-190" value="" style="shape=partialRectangle;collapsible=0;dropTarget=0;pointerEvents=0;fillColor=none;points=[[0,0.5],[1,0.5]];portConstraint=eastwest;top=0;left=0;right=0;bottom=0;" parent="59zhnOQAHoqHDvjKzUpp-186" vertex="1">
          <mxGeometry y="80" width="320" height="40" as="geometry" />
        </mxCell>
        <mxCell id="59zhnOQAHoqHDvjKzUpp-191" value="FK" style="shape=partialRectangle;overflow=hidden;connectable=0;fillColor=none;top=0;left=0;bottom=0;right=0;" parent="59zhnOQAHoqHDvjKzUpp-190" vertex="1">
          <mxGeometry width="30" height="40" as="geometry">
            <mxRectangle width="30" height="40" as="alternateBounds" />
          </mxGeometry>
        </mxCell>
        <mxCell id="59zhnOQAHoqHDvjKzUpp-192" value="owner_id int NOT NULL" style="shape=partialRectangle;overflow=hidden;connectable=0;fillColor=none;top=0;left=0;bottom=0;right=0;align=left;spacingLeft=6;" parent="59zhnOQAHoqHDvjKzUpp-190" vertex="1">
          <mxGeometry x="30" width="290" height="40" as="geometry">
            <mxRectangle width="290" height="40" as="alternateBounds" />
          </mxGeometry>
        </mxCell>
        <mxCell id="59zhnOQAHoqHDvjKzUpp-193" value="" style="shape=partialRectangle;collapsible=0;dropTarget=0;pointerEvents=0;fillColor=none;points=[[0,0.5],[1,0.5]];portConstraint=eastwest;top=0;left=0;right=0;bottom=0;" parent="59zhnOQAHoqHDvjKzUpp-186" vertex="1">
          <mxGeometry y="120" width="320" height="40" as="geometry" />
        </mxCell>
        <mxCell id="59zhnOQAHoqHDvjKzUpp-194" value="" style="shape=partialRectangle;overflow=hidden;connectable=0;fillColor=none;top=0;left=0;bottom=0;right=0;" parent="59zhnOQAHoqHDvjKzUpp-193" vertex="1">
          <mxGeometry width="30" height="40" as="geometry">
            <mxRectangle width="30" height="40" as="alternateBounds" />
          </mxGeometry>
        </mxCell>
        <mxCell id="59zhnOQAHoqHDvjKzUpp-195" value="brand varchar(100) NOT NULL" style="shape=partialRectangle;overflow=hidden;connectable=0;fillColor=none;top=0;left=0;bottom=0;right=0;align=left;spacingLeft=6;" parent="59zhnOQAHoqHDvjKzUpp-193" vertex="1">
          <mxGeometry x="30" width="290" height="40" as="geometry">
            <mxRectangle width="290" height="40" as="alternateBounds" />
          </mxGeometry>
        </mxCell>
        <mxCell id="59zhnOQAHoqHDvjKzUpp-196" value="" style="shape=partialRectangle;collapsible=0;dropTarget=0;pointerEvents=0;fillColor=none;points=[[0,0.5],[1,0.5]];portConstraint=eastwest;top=0;left=0;right=0;bottom=0;" parent="59zhnOQAHoqHDvjKzUpp-186" vertex="1">
          <mxGeometry y="160" width="320" height="40" as="geometry" />
        </mxCell>
        <mxCell id="59zhnOQAHoqHDvjKzUpp-197" value="" style="shape=partialRectangle;overflow=hidden;connectable=0;fillColor=none;top=0;left=0;bottom=0;right=0;" parent="59zhnOQAHoqHDvjKzUpp-196" vertex="1">
          <mxGeometry width="30" height="40" as="geometry">
            <mxRectangle width="30" height="40" as="alternateBounds" />
          </mxGeometry>
        </mxCell>
        <mxCell id="59zhnOQAHoqHDvjKzUpp-198" value="model varchar(100) NOT NULL" style="shape=partialRectangle;overflow=hidden;connectable=0;fillColor=none;top=0;left=0;bottom=0;right=0;align=left;spacingLeft=6;" parent="59zhnOQAHoqHDvjKzUpp-196" vertex="1">
          <mxGeometry x="30" width="290" height="40" as="geometry">
            <mxRectangle width="290" height="40" as="alternateBounds" />
          </mxGeometry>
        </mxCell>
        <mxCell id="59zhnOQAHoqHDvjKzUpp-199" value="" style="shape=partialRectangle;collapsible=0;dropTarget=0;pointerEvents=0;fillColor=none;points=[[0,0.5],[1,0.5]];portConstraint=eastwest;top=0;left=0;right=0;bottom=0;" parent="59zhnOQAHoqHDvjKzUpp-186" vertex="1">
          <mxGeometry y="200" width="320" height="40" as="geometry" />
        </mxCell>
        <mxCell id="59zhnOQAHoqHDvjKzUpp-200" value="" style="shape=partialRectangle;overflow=hidden;connectable=0;fillColor=none;top=0;left=0;bottom=0;right=0;" parent="59zhnOQAHoqHDvjKzUpp-199" vertex="1">
          <mxGeometry width="30" height="40" as="geometry">
            <mxRectangle width="30" height="40" as="alternateBounds" />
          </mxGeometry>
        </mxCell>
        <mxCell id="59zhnOQAHoqHDvjKzUpp-201" value="year int NOT NULL" style="shape=partialRectangle;overflow=hidden;connectable=0;fillColor=none;top=0;left=0;bottom=0;right=0;align=left;spacingLeft=6;" parent="59zhnOQAHoqHDvjKzUpp-199" vertex="1">
          <mxGeometry x="30" width="290" height="40" as="geometry">
            <mxRectangle width="290" height="40" as="alternateBounds" />
          </mxGeometry>
        </mxCell>
        <mxCell id="59zhnOQAHoqHDvjKzUpp-202" value="" style="shape=partialRectangle;collapsible=0;dropTarget=0;pointerEvents=0;fillColor=none;points=[[0,0.5],[1,0.5]];portConstraint=eastwest;top=0;left=0;right=0;bottom=0;" parent="59zhnOQAHoqHDvjKzUpp-186" vertex="1">
          <mxGeometry y="240" width="320" height="40" as="geometry" />
        </mxCell>
        <mxCell id="59zhnOQAHoqHDvjKzUpp-203" value="" style="shape=partialRectangle;overflow=hidden;connectable=0;fillColor=none;top=0;left=0;bottom=0;right=0;" parent="59zhnOQAHoqHDvjKzUpp-202" vertex="1">
          <mxGeometry width="30" height="40" as="geometry">
            <mxRectangle width="30" height="40" as="alternateBounds" />
          </mxGeometry>
        </mxCell>
        <mxCell id="59zhnOQAHoqHDvjKzUpp-204" value="distance int NOT NULL" style="shape=partialRectangle;overflow=hidden;connectable=0;fillColor=none;top=0;left=0;bottom=0;right=0;align=left;spacingLeft=6;" parent="59zhnOQAHoqHDvjKzUpp-202" vertex="1">
          <mxGeometry x="30" width="290" height="40" as="geometry">
            <mxRectangle width="290" height="40" as="alternateBounds" />
          </mxGeometry>
        </mxCell>
        <mxCell id="59zhnOQAHoqHDvjKzUpp-205" value="" style="shape=partialRectangle;collapsible=0;dropTarget=0;pointerEvents=0;fillColor=none;points=[[0,0.5],[1,0.5]];portConstraint=eastwest;top=0;left=0;right=0;bottom=0;" parent="59zhnOQAHoqHDvjKzUpp-186" vertex="1">
          <mxGeometry y="280" width="320" height="40" as="geometry" />
        </mxCell>
        <mxCell id="59zhnOQAHoqHDvjKzUpp-206" value="" style="shape=partialRectangle;overflow=hidden;connectable=0;fillColor=none;top=0;left=0;bottom=0;right=0;" parent="59zhnOQAHoqHDvjKzUpp-205" vertex="1">
          <mxGeometry width="30" height="40" as="geometry">
            <mxRectangle width="30" height="40" as="alternateBounds" />
          </mxGeometry>
        </mxCell>
        <mxCell id="59zhnOQAHoqHDvjKzUpp-207" value="price float(7,2) NOT NULL" style="shape=partialRectangle;overflow=hidden;connectable=0;fillColor=none;top=0;left=0;bottom=0;right=0;align=left;spacingLeft=6;" parent="59zhnOQAHoqHDvjKzUpp-205" vertex="1">
          <mxGeometry x="30" width="290" height="40" as="geometry">
            <mxRectangle width="290" height="40" as="alternateBounds" />
          </mxGeometry>
        </mxCell>
        <mxCell id="59zhnOQAHoqHDvjKzUpp-230" value="" style="shape=partialRectangle;collapsible=0;dropTarget=0;pointerEvents=0;fillColor=none;points=[[0,0.5],[1,0.5]];portConstraint=eastwest;top=0;left=0;right=0;bottom=0;" parent="59zhnOQAHoqHDvjKzUpp-186" vertex="1">
          <mxGeometry y="320" width="320" height="40" as="geometry" />
        </mxCell>
        <mxCell id="59zhnOQAHoqHDvjKzUpp-231" value="" style="shape=partialRectangle;overflow=hidden;connectable=0;fillColor=none;top=0;left=0;bottom=0;right=0;" parent="59zhnOQAHoqHDvjKzUpp-230" vertex="1">
          <mxGeometry width="30" height="40" as="geometry">
            <mxRectangle width="30" height="40" as="alternateBounds" />
          </mxGeometry>
        </mxCell>
        <mxCell id="59zhnOQAHoqHDvjKzUpp-232" value="description text NOT NULL " style="shape=partialRectangle;overflow=hidden;connectable=0;fillColor=none;top=0;left=0;bottom=0;right=0;align=left;spacingLeft=6;" parent="59zhnOQAHoqHDvjKzUpp-230" vertex="1">
          <mxGeometry x="30" width="290" height="40" as="geometry">
            <mxRectangle width="290" height="40" as="alternateBounds" />
          </mxGeometry>
        </mxCell>
        <mxCell id="59zhnOQAHoqHDvjKzUpp-208" value="VEHICLE_OWNERS" style="shape=table;startSize=40;container=1;collapsible=1;childLayout=tableLayout;fixedRows=1;rowLines=0;fontStyle=1;align=center;resizeLast=1;" parent="1" vertex="1">
          <mxGeometry x="1360" y="430" width="320" height="130" as="geometry" />
        </mxCell>
        <mxCell id="59zhnOQAHoqHDvjKzUpp-209" value="" style="shape=partialRectangle;collapsible=0;dropTarget=0;pointerEvents=0;fillColor=none;points=[[0,0.5],[1,0.5]];portConstraint=eastwest;top=0;left=0;right=0;bottom=1;" parent="59zhnOQAHoqHDvjKzUpp-208" vertex="1">
          <mxGeometry y="40" width="320" height="40" as="geometry" />
        </mxCell>
        <mxCell id="59zhnOQAHoqHDvjKzUpp-210" value="PK" style="shape=partialRectangle;overflow=hidden;connectable=0;fillColor=none;top=0;left=0;bottom=0;right=0;fontStyle=1;" parent="59zhnOQAHoqHDvjKzUpp-209" vertex="1">
          <mxGeometry width="30" height="40" as="geometry">
            <mxRectangle width="30" height="40" as="alternateBounds" />
          </mxGeometry>
        </mxCell>
        <mxCell id="59zhnOQAHoqHDvjKzUpp-211" value="owner_id int NOT NULL AUTO_INCREMENT" style="shape=partialRectangle;overflow=hidden;connectable=0;fillColor=none;top=0;left=0;bottom=0;right=0;align=left;spacingLeft=6;fontStyle=5;" parent="59zhnOQAHoqHDvjKzUpp-209" vertex="1">
          <mxGeometry x="30" width="290" height="40" as="geometry">
            <mxRectangle width="290" height="40" as="alternateBounds" />
          </mxGeometry>
        </mxCell>
        <mxCell id="59zhnOQAHoqHDvjKzUpp-212" value="" style="shape=partialRectangle;collapsible=0;dropTarget=0;pointerEvents=0;fillColor=none;points=[[0,0.5],[1,0.5]];portConstraint=eastwest;top=0;left=0;right=0;bottom=0;" parent="59zhnOQAHoqHDvjKzUpp-208" vertex="1">
          <mxGeometry y="80" width="320" height="40" as="geometry" />
        </mxCell>
        <mxCell id="59zhnOQAHoqHDvjKzUpp-213" value="FK" style="shape=partialRectangle;overflow=hidden;connectable=0;fillColor=none;top=0;left=0;bottom=0;right=0;" parent="59zhnOQAHoqHDvjKzUpp-212" vertex="1">
          <mxGeometry width="30" height="40" as="geometry">
            <mxRectangle width="30" height="40" as="alternateBounds" />
          </mxGeometry>
        </mxCell>
        <mxCell id="59zhnOQAHoqHDvjKzUpp-214" value="contact_id int" style="shape=partialRectangle;overflow=hidden;connectable=0;fillColor=none;top=0;left=0;bottom=0;right=0;align=left;spacingLeft=6;" parent="59zhnOQAHoqHDvjKzUpp-212" vertex="1">
          <mxGeometry x="30" width="290" height="40" as="geometry">
            <mxRectangle width="290" height="40" as="alternateBounds" />
          </mxGeometry>
        </mxCell>
        <mxCell id="59zhnOQAHoqHDvjKzUpp-234" style="edgeStyle=orthogonalEdgeStyle;rounded=0;orthogonalLoop=1;jettySize=auto;html=1;" parent="1" source="59zhnOQAHoqHDvjKzUpp-209" target="59zhnOQAHoqHDvjKzUpp-190" edge="1">
          <mxGeometry relative="1" as="geometry">
            <Array as="points">
              <mxPoint x="1300" y="490" />
              <mxPoint x="1300" y="-420" />
            </Array>
          </mxGeometry>
        </mxCell>
        <mxCell id="59zhnOQAHoqHDvjKzUpp-235" style="edgeStyle=orthogonalEdgeStyle;rounded=0;orthogonalLoop=1;jettySize=auto;html=1;exitX=0;exitY=0.5;exitDx=0;exitDy=0;entryX=0;entryY=0.5;entryDx=0;entryDy=0;fillColor=#d5e8d4;strokeColor=#82b366;" parent="1" source="59zhnOQAHoqHDvjKzUpp-45" target="59zhnOQAHoqHDvjKzUpp-212" edge="1">
          <mxGeometry relative="1" as="geometry">
            <Array as="points">
              <mxPoint x="720" y="-980" />
              <mxPoint x="720" y="530" />
            </Array>
          </mxGeometry>
        </mxCell>
        <mxCell id="59zhnOQAHoqHDvjKzUpp-236" style="edgeStyle=orthogonalEdgeStyle;rounded=0;orthogonalLoop=1;jettySize=auto;html=1;entryX=0;entryY=0.5;entryDx=0;entryDy=0;fillColor=#fff2cc;strokeColor=#d6b656;" parent="1" source="C-vyLk0tnHw3VtMMgP7b-24" target="59zhnOQAHoqHDvjKzUpp-14" edge="1">
          <mxGeometry relative="1" as="geometry">
            <Array as="points">
              <mxPoint x="790" y="190" />
              <mxPoint x="790" y="740" />
            </Array>
          </mxGeometry>
        </mxCell>
        <mxCell id="59zhnOQAHoqHDvjKzUpp-237" value="VEHICLE_IMAGES" style="shape=table;startSize=40;container=1;collapsible=1;childLayout=tableLayout;fixedRows=1;rowLines=0;fontStyle=1;align=center;resizeLast=1;" parent="1" vertex="1">
          <mxGeometry x="1360" y="-880" width="320" height="160.00000000000045" as="geometry" />
        </mxCell>
        <mxCell id="59zhnOQAHoqHDvjKzUpp-238" value="" style="shape=partialRectangle;collapsible=0;dropTarget=0;pointerEvents=0;fillColor=none;points=[[0,0.5],[1,0.5]];portConstraint=eastwest;top=0;left=0;right=0;bottom=1;" parent="59zhnOQAHoqHDvjKzUpp-237" vertex="1">
          <mxGeometry y="40" width="320" height="40" as="geometry" />
        </mxCell>
        <mxCell id="59zhnOQAHoqHDvjKzUpp-239" value="PK" style="shape=partialRectangle;overflow=hidden;connectable=0;fillColor=none;top=0;left=0;bottom=0;right=0;fontStyle=1;" parent="59zhnOQAHoqHDvjKzUpp-238" vertex="1">
          <mxGeometry width="30" height="40" as="geometry">
            <mxRectangle width="30" height="40" as="alternateBounds" />
          </mxGeometry>
        </mxCell>
        <mxCell id="59zhnOQAHoqHDvjKzUpp-240" value="image_id int NOT NULL AUTO_INCREMENT" style="shape=partialRectangle;overflow=hidden;connectable=0;fillColor=none;top=0;left=0;bottom=0;right=0;align=left;spacingLeft=6;fontStyle=5;" parent="59zhnOQAHoqHDvjKzUpp-238" vertex="1">
          <mxGeometry x="30" width="290" height="40" as="geometry">
            <mxRectangle width="290" height="40" as="alternateBounds" />
          </mxGeometry>
        </mxCell>
        <mxCell id="59zhnOQAHoqHDvjKzUpp-241" value="" style="shape=partialRectangle;collapsible=0;dropTarget=0;pointerEvents=0;fillColor=none;points=[[0,0.5],[1,0.5]];portConstraint=eastwest;top=0;left=0;right=0;bottom=0;" parent="59zhnOQAHoqHDvjKzUpp-237" vertex="1">
          <mxGeometry y="80" width="320" height="40" as="geometry" />
        </mxCell>
        <mxCell id="59zhnOQAHoqHDvjKzUpp-242" value="FK" style="shape=partialRectangle;overflow=hidden;connectable=0;fillColor=none;top=0;left=0;bottom=0;right=0;" parent="59zhnOQAHoqHDvjKzUpp-241" vertex="1">
          <mxGeometry width="30" height="40" as="geometry">
            <mxRectangle width="30" height="40" as="alternateBounds" />
          </mxGeometry>
        </mxCell>
        <mxCell id="59zhnOQAHoqHDvjKzUpp-243" value="vehicule_id int NOT NULL" style="shape=partialRectangle;overflow=hidden;connectable=0;fillColor=none;top=0;left=0;bottom=0;right=0;align=left;spacingLeft=6;" parent="59zhnOQAHoqHDvjKzUpp-241" vertex="1">
          <mxGeometry x="30" width="290" height="40" as="geometry">
            <mxRectangle width="290" height="40" as="alternateBounds" />
          </mxGeometry>
        </mxCell>
        <mxCell id="59zhnOQAHoqHDvjKzUpp-244" value="" style="shape=partialRectangle;collapsible=0;dropTarget=0;pointerEvents=0;fillColor=none;points=[[0,0.5],[1,0.5]];portConstraint=eastwest;top=0;left=0;right=0;bottom=0;" parent="59zhnOQAHoqHDvjKzUpp-237" vertex="1">
          <mxGeometry y="120" width="320" height="40" as="geometry" />
        </mxCell>
        <mxCell id="59zhnOQAHoqHDvjKzUpp-245" value="" style="shape=partialRectangle;overflow=hidden;connectable=0;fillColor=none;top=0;left=0;bottom=0;right=0;" parent="59zhnOQAHoqHDvjKzUpp-244" vertex="1">
          <mxGeometry width="30" height="40" as="geometry">
            <mxRectangle width="30" height="40" as="alternateBounds" />
          </mxGeometry>
        </mxCell>
        <mxCell id="59zhnOQAHoqHDvjKzUpp-246" value="image_url varchar(100) NOT NULL" style="shape=partialRectangle;overflow=hidden;connectable=0;fillColor=none;top=0;left=0;bottom=0;right=0;align=left;spacingLeft=6;" parent="59zhnOQAHoqHDvjKzUpp-244" vertex="1">
          <mxGeometry x="30" width="290" height="40" as="geometry">
            <mxRectangle width="290" height="40" as="alternateBounds" />
          </mxGeometry>
        </mxCell>
        <mxCell id="59zhnOQAHoqHDvjKzUpp-262" style="edgeStyle=orthogonalEdgeStyle;rounded=0;orthogonalLoop=1;jettySize=auto;html=1;exitX=0;exitY=0.5;exitDx=0;exitDy=0;entryX=0;entryY=0.5;entryDx=0;entryDy=0;" parent="1" source="59zhnOQAHoqHDvjKzUpp-187" target="59zhnOQAHoqHDvjKzUpp-241" edge="1">
          <mxGeometry relative="1" as="geometry">
            <Array as="points">
              <mxPoint x="1300" y="-460" />
              <mxPoint x="1300" y="-780" />
            </Array>
          </mxGeometry>
        </mxCell>
      </root>
    </mxGraphModel>
  </diagram>
</mxfile>
